<?xml version="1.0" encoding="UTF-8" standalone="no"?><!-- Generator: Gravit.io --><svg xmlns="http://www.w3.org/2000/svg" xmlns:xlink="http://www.w3.org/1999/xlink" style="isolation:isolate" viewBox="0 0 18.7671 10.5761" width="18.7671pt" height="10.5761pt"><g><linearGradient id="_lgradient_0" x1="0" y1="0.5" x2="1" y2="0.5" gradientTransform="matrix(-11.78947,0,0,2.82088,18.4626,6.8272)" gradientUnits="userSpaceOnUse"><stop offset="0%" stop-opacity="1" style="stop-color:rgb(229,229,229)"/></linearGradient><path d=" M 18.462 6.827 L 6.675 7.769 C 6.584 7.792 9.172 9.249 10.716 9.541 C 11.84 9.753 14.243 9.719 15.876 8.804 C 17.056 8.301 17.9 7.654 18.463 6.827 L 18.462 6.827 Z " fill="url(#_lgradient_0)"/><linearGradient id="_lgradient_1" x1="0" y1="0.5" x2="1" y2="0.5" gradientTransform="matrix(-18.7671,0,0,10.5761,18.7671,0)" gradientUnits="userSpaceOnUse"><stop offset="0%" stop-opacity="1" style="stop-color:rgb(66,125,143)"/></linearGradient><path d=" M 18.48 6.808 C 18.253 7.196 14.012 8.071 11.266 8.357 C 11.228 8.359 11.04 8.416 11.08 8.566 C 11.107 8.982 10.828 9.363 10.431 9.642 C 9.235 10.313 8.474 10.577 7.132 10.576 C 6.529 10.576 5.973 10.497 5.907 10.263 C 5.842 10.035 5.96 9.937 6.432 9.819 C 7.932 9.446 8.816 8.629 8.697 8.29 C 8.282 7.985 7.422 7.975 6.781 7.815 C 6.183 7.816 3.893 6.814 2.817 5.942 C 2.631 5.758 2.444 5.609 2.215 5.497 C 2.012 5.629 1.847 5.743 1.687 5.841 C 1.282 6.049 0.901 6.306 0.472 6.465 C 0.363 6.49 0.269 6.484 0.197 6.428 C 0.065 6.089 0.333 5.807 0.603 5.429 C 0.75 5.224 1.127 4.658 1.131 4.255 C 0.961 3.75 0.693 3.235 0.454 2.738 C 0.22 2.295 -0.158 1.569 0.071 1.404 C 0.318 1.225 0.805 1.758 1.244 2.283 C 1.665 2.786 2.058 3.429 2.525 3.983 C 3.336 4.575 3.914 4.528 4.343 4.501 C 4.735 4.248 4.212 3.829 4.48 3.677 C 4.649 3.581 5.008 4.229 5.346 4.518 C 5.823 4.764 7.645 4.656 8.074 3.878 C 8.474 3.108 8.079 1.693 7.667 0.26 C 7.647 0.192 7.682 0.127 7.702 0.093 C 7.882 -0.178 8.621 0.165 9.188 0.837 C 9.861 1.633 10.23 2.99 10.644 3.349 C 11.656 3.84 12.56 3.784 13.478 3.872 C 15.824 4.098 18.704 4.436 18.766 5.944 C 18.781 6.324 18.654 6.512 18.481 6.808 L 18.48 6.808 Z " fill="url(#_lgradient_1)"/><linearGradient id="_lgradient_2" x1="0" y1="0.5" x2="1" y2="0.5" gradientTransform="matrix(-3.73271,0,0,0.93328,17.5155,7.84621)" gradientUnits="userSpaceOnUse"><stop offset="0%" stop-opacity="1" style="stop-color:rgb(234,196,191)"/></linearGradient><path d=" M 17.515 7.846 C 17.293 8.026 17.047 8.195 16.779 8.352 C 16.027 8.761 14.205 8.812 13.783 8.765 C 14.466 8.304 16.905 8.131 17.515 7.846 L 17.515 7.846 Z " fill="url(#_lgradient_2)"/><linearGradient id="_lgradient_3" x1="0" y1="0.5" x2="1" y2="0.5" gradientTransform="matrix(-0.88352,0,0,0.45904,15.55884,7.01407)" gradientUnits="userSpaceOnUse"><stop offset="0%" stop-opacity="1" style="stop-color:rgb(82,59,58)"/></linearGradient><path d=" M 15.153 7.014 C 15.231 7.013 15.306 7.022 15.371 7.04 C 15.445 7.059 15.507 7.083 15.547 7.138 C 15.555 7.15 15.559 7.164 15.559 7.179 C 15.555 7.266 15.488 7.326 15.411 7.368 C 15.335 7.411 15.241 7.44 15.145 7.457 C 15.049 7.474 14.952 7.479 14.869 7.466 C 14.828 7.459 14.789 7.449 14.755 7.43 C 14.721 7.41 14.69 7.379 14.678 7.338 C 14.674 7.325 14.674 7.313 14.678 7.3 C 14.709 7.202 14.778 7.13 14.858 7.085 C 14.938 7.041 15.03 7.021 15.12 7.015 L 15.12 7.015 C 15.131 7.015 15.142 7.014 15.153 7.014 L 15.153 7.014 Z " fill="url(#_lgradient_3)"/><linearGradient id="_lgradient_4" x1="0" y1="0.5" x2="1" y2="0.5" gradientTransform="matrix(-0.75075,0,0,0.3281,15.4925,7.07957)" gradientUnits="userSpaceOnUse"><stop offset="0%" stop-opacity="1" style="stop-color:rgb(0,0,0)"/></linearGradient><path d=" M 15.492 7.176 C 15.408 7.059 14.845 6.992 14.742 7.32 C 14.793 7.497 15.484 7.385 15.492 7.176 Z " fill="url(#_lgradient_4)"/><linearGradient id="_lgradient_5" x1="0" y1="0.5" x2="1" y2="0.5" gradientTransform="matrix(-0.19,0,0,0.18718,15.0825,7.13762)" gradientUnits="userSpaceOnUse"><stop offset="0%" stop-opacity="1" style="stop-color:rgb(255,255,255)"/></linearGradient><path d=" M 14.892 7.231 C 14.892 7.256 14.903 7.28 14.92 7.297 C 14.938 7.315 14.962 7.325 14.987 7.325 C 15.013 7.325 15.037 7.315 15.055 7.297 C 15.072 7.28 15.082 7.256 15.082 7.231 C 15.082 7.206 15.072 7.183 15.055 7.165 C 15.037 7.147 15.013 7.138 14.987 7.138 C 14.962 7.138 14.938 7.147 14.92 7.165 C 14.903 7.183 14.892 7.206 14.892 7.231 Z " fill="url(#_lgradient_5)"/></g></svg>