<?xml version="1.0" encoding="UTF-8" standalone="no"?><!-- Generator: Gravit.io --><svg xmlns="http://www.w3.org/2000/svg" xmlns:xlink="http://www.w3.org/1999/xlink" style="isolation:isolate" viewBox="0 0 941.35 237.99383" width="941.35pt" height="237.99383pt"><path d=" M 40.28 23.13 L 40.28 44.03 L 55.78 57.93 L 55.78 119.83 L 102.98 119.83 L 102.98 105.93 L 118.48 105.93 L 118.48 126.63 L 110.49 133.66 L 16.99 133.66 L 9 126.63 L 9 16.63 L 16.99 9.6 L 110.79 9.6 L 118.78 16.63 L 118.78 37.13 L 103.08 37.13 L 103.08 23.23 L 40.38 23.23 L 40.28 23.13 Z  M 173.28 133.13 L 142.48 133.13 L 134.49 126.1 L 134.49 16.1 L 142.48 9.07 L 157.78 9.07 L 165.77 16.1 L 166.005 36.6 L 220.505 36.6 L 228.495 43.84 L 228.495 133.24 L 212.495 133.24 L 212.495 50.44 L 165.695 50.44 L 165.695 71.14 L 181.195 84.84 L 181.195 126.24 L 173.205 133.27 L 173.28 133.13 Z  M 306.28 91.73 L 274.78 91.73 L 274.78 119.23 L 306.28 119.23 L 306.28 91.73 Z  M 429.28 50.33 L 382.48 50.33 L 382.48 71.23 L 397.78 84.63 L 397.78 119.23 L 429.28 119.23 L 429.28 50.33 Z  M 553.28 126.03 L 545.29 133.06 L 467.29 133.06 L 459.3 126.03 L 459.3 105.33 L 475 105.33 L 475 119.23 L 506 119.23 L 506 91.73 L 467.2 91.73 L 459.21 84.7 L 459.21 43.5 L 467.2 36.47 L 545.2 36.47 L 553.19 43.5 L 553.19 64 L 537.69 64 L 537.69 50.3 L 490.69 50.3 L 490.69 77.8 L 545.19 77.8 L 553.18 84.83 L 553.28 126.03 Z  M 582.68 50.33 L 629.68 50.33 L 629.68 71.03 L 613.98 84.93 L 613.98 119.23 L 582.68 119.23 L 582.68 50.33 Z  M 752.68 50.33 L 721.18 50.33 L 706.18 65.93 L 706.456 118.63 L 721.156 119.212 L 752.656 119.212 L 752.68 50.33 Z  M 788.68 133.13 L 780.69 126.1 L 780.69 43.5 L 788.68 36.47 L 858.98 36.47 L 858.98 50.37 L 811.98 50.37 L 811.98 71.07 L 827.48 84.77 L 827.48 126.17 L 819.49 133.2 L 788.68 133.13 Z  M 252.68 133.13 L 244.69 126.1 L 244.69 84.9 L 252.68 77.87 L 307.48 77.87 L 307.48 50.37 L 260.28 50.37 L 260.28 64.07 L 244.78 64.07 L 244.78 43.37 L 252.53 36.54 L 315.23 36.54 L 322.98 43.37 L 322.98 71.27 L 338.48 84.97 L 338.48 126.17 L 330.49 133.2 L 252.69 133.2 L 252.68 133.13 Z  M 359.68 133.13 L 351.69 126.1 L 351.69 43.5 L 359.68 36.47 L 437.48 36.47 L 445.47 43.5 L 445.47 126.1 L 437.48 133.13 L 359.68 133.13 Z  M 567.68 126.1 L 575.67 133.13 L 653.67 133.13 L 661.66 126.1 L 661.66 16.1 L 653.91 9.27 L 638.41 9.27 L 630.42 16.3 L 630.42 36.8 L 575.62 36.8 L 567.63 43.83 L 567.68 126.1 Z  M 682.68 133.13 L 674.69 126.1 L 674.69 43.5 L 682.68 36.47 L 760.48 36.47 L 768.47 43.5 L 768.47 126.1 L 760.48 133.13 L 682.68 133.13 Z  M 916.68 50.33 L 916.68 71.23 L 932.18 84.93 L 932.18 126.13 L 924.19 133.16 L 893.39 133.16 L 885.4 126.13 L 885.4 50.43 L 869.4 50.43 L 869.4 36.53 L 885.4 36.53 L 885.4 15.83 L 893.15 9 L 932.35 9 L 932.35 22.7 L 901.05 22.7 L 901.05 36.6 L 932.35 36.6 L 932.35 50.5 L 916.68 50.33 Z " fill="rgb(0,0,0)" vector-effect="non-scaling-stroke" stroke-width="18" stroke="rgb(255,255,255)" stroke-linejoin="round" stroke-linecap="round" stroke-miterlimit="4"/><path d=" M 40.28 23.13 L 40.28 44.03 L 55.78 57.93 L 55.78 119.83 L 102.98 119.83 L 102.98 105.93 L 118.48 105.93 L 118.48 126.63 L 110.49 133.66 L 16.99 133.66 L 9 126.63 L 9 16.63 L 16.99 9.6 L 110.79 9.6 L 118.78 16.63 L 118.78 37.13 L 103.08 37.13 L 103.08 23.23 L 40.38 23.23 L 40.28 23.13 Z  M 173.28 133.13 L 142.48 133.13 L 134.49 126.1 L 134.49 16.1 L 142.48 9.07 L 157.78 9.07 L 165.77 16.1 L 166.005 36.6 L 220.505 36.6 L 228.495 43.84 L 228.495 133.24 L 212.495 133.24 L 212.495 50.44 L 165.695 50.44 L 165.695 71.14 L 181.195 84.84 L 181.195 126.24 L 173.205 133.27 L 173.28 133.13 Z  M 306.28 91.73 L 274.78 91.73 L 274.78 119.23 L 306.28 119.23 L 306.28 91.73 Z  M 429.28 50.33 L 382.48 50.33 L 382.48 71.23 L 397.78 84.63 L 397.78 119.23 L 429.28 119.23 L 429.28 50.33 Z  M 553.28 126.03 L 545.29 133.06 L 467.29 133.06 L 459.3 126.03 L 459.3 105.33 L 475 105.33 L 475 119.23 L 506 119.23 L 506 91.73 L 467.2 91.73 L 459.21 84.7 L 459.21 43.5 L 467.2 36.47 L 545.2 36.47 L 553.19 43.5 L 553.19 64 L 537.69 64 L 537.69 50.3 L 490.69 50.3 L 490.69 77.8 L 545.19 77.8 L 553.18 84.83 L 553.28 126.03 Z  M 582.68 50.33 L 629.68 50.33 L 629.68 71.03 L 613.98 84.93 L 613.98 119.23 L 582.68 119.23 L 582.68 50.33 Z  M 752.68 50.33 L 721.18 50.33 L 706.18 65.93 L 706.456 118.63 L 721.156 119.212 L 752.656 119.212 L 752.68 50.33 Z  M 788.68 133.13 L 780.69 126.1 L 780.69 43.5 L 788.68 36.47 L 858.98 36.47 L 858.98 50.37 L 811.98 50.37 L 811.98 71.07 L 827.48 84.77 L 827.48 126.17 L 819.49 133.2 L 788.68 133.13 Z  M 252.68 133.13 L 244.69 126.1 L 244.69 84.9 L 252.68 77.87 L 307.48 77.87 L 307.48 50.37 L 260.28 50.37 L 260.28 64.07 L 244.78 64.07 L 244.78 43.37 L 252.53 36.54 L 315.23 36.54 L 322.98 43.37 L 322.98 71.27 L 338.48 84.97 L 338.48 126.17 L 330.49 133.2 L 252.69 133.2 L 252.68 133.13 Z  M 359.68 133.13 L 351.69 126.1 L 351.69 43.5 L 359.68 36.47 L 437.48 36.47 L 445.47 43.5 L 445.47 126.1 L 437.48 133.13 L 359.68 133.13 Z  M 567.68 126.1 L 575.67 133.13 L 653.67 133.13 L 661.66 126.1 L 661.66 16.1 L 653.91 9.27 L 638.41 9.27 L 630.42 16.3 L 630.42 36.8 L 575.62 36.8 L 567.63 43.83 L 567.68 126.1 Z  M 682.68 133.13 L 674.69 126.1 L 674.69 43.5 L 682.68 36.47 L 760.48 36.47 L 768.47 43.5 L 768.47 126.1 L 760.48 133.13 L 682.68 133.13 Z  M 916.68 50.33 L 916.68 71.23 L 932.18 84.93 L 932.18 126.13 L 924.19 133.16 L 893.39 133.16 L 885.4 126.13 L 885.4 50.43 L 869.4 50.43 L 869.4 36.53 L 885.4 36.53 L 885.4 15.83 L 893.15 9 L 932.35 9 L 932.35 22.7 L 901.05 22.7 L 901.05 36.6 L 932.35 36.6 L 932.35 50.5 L 916.68 50.33 Z " fill="rgb(0,0,0)"/><path d=" M 698.78 67.13 C 699.345 67.337 710.78 75.22 713.08 76.97 C 717.78 80.58 723.58 85.85 724.98 87.87 C 726.06 89.35 726.95 91.98 727.24 94.54 C 727.585 97.59 727.572 122.74 727.216 142.14 C 726.914 158.64 726.954 158.14 725.396 162.94 C 724.913 164.4 724.56 165.63 724.612 165.68 C 724.664 165.73 725.069 165.507 725.511 165.185 C 726.551 164.427 727.711 162.745 728.401 160.985 C 729.551 158.045 729.621 157.045 729.881 140.285 C 730.115 125.185 730.284 118.285 730.87 100.185 L 731.145 91.695 L 731.803 90.435 C 732.963 88.215 735.003 86.445 746.503 77.735 C 752.593 73.085 757.603 69.285 757.703 69.285 C 757.929 69.285 757.517 74.115 757.264 74.425 C 757.125 74.593 754.044 76.855 750.414 79.445 C 742.604 85.025 740.484 86.695 737.914 89.255 C 735.414 91.795 734.794 92.685 734.444 94.275 C 733.77 97.335 733.613 105.675 733.876 124.275 C 734.182 145.875 734.019 153.075 733.152 156.475 C 732.46 159.165 731.262 162.465 730.222 164.525 C 729.785 165.396 729.467 166.145 729.515 166.195 C 729.725 166.395 730.975 165.554 731.955 164.565 C 735.005 161.445 736.905 156.805 737.515 150.965 C 737.757 148.635 737.868 135.265 737.719 126.565 C 737.673 123.845 737.637 118.435 737.64 114.565 C 737.645 108.195 737.695 107.205 738.144 104.825 C 738.737 101.675 739.924 98.155 741.084 96.085 C 741.78 94.845 742.094 94.505 742.934 94.105 C 745.324 92.975 751.844 92.855 757.034 93.848 L 758.214 94.073 L 758.214 95.773 C 758.214 96.71 758.188 97.493 758.157 97.513 C 758.127 97.532 755.617 97.608 752.587 97.683 C 746.557 97.832 746.177 97.903 744.637 99.203 C 743.507 100.15 743.227 100.743 742.937 102.753 C 742.339 107.003 742.241 110.263 742.244 125.753 C 742.246 135.313 742.151 143.253 742.013 144.753 C 741.37 152.023 739.853 157.853 737.273 162.953 C 736.023 165.413 735.813 165.683 733.863 167.433 C 730.203 170.733 725.303 173.923 721.063 175.743 L 719.153 176.575 L 720.523 176.497 C 723.583 176.324 731.023 172.027 739.923 165.297 C 741.583 164.047 743.023 163.017 743.113 163.017 C 743.436 163.017 743.988 163.967 743.988 164.527 C 743.988 165.508 742.198 168.037 740.698 169.187 C 733.018 175.057 726.798 178.717 721.498 180.387 C 720.328 180.769 719.108 181.31 718.808 181.587 L 718.251 182.093 L 719.611 183.393 L 721.621 182.837 C 726.121 181.597 728.901 180.247 737.621 175.027 C 744.311 171.047 744.391 171.017 744.391 172.757 C 744.391 173.51 744.185 173.967 743.271 175.257 C 742.654 176.123 742.021 176.987 741.861 177.177 C 741.404 177.726 733.771 182.027 730.561 183.517 C 728.961 184.271 726.471 185.237 725.041 185.657 C 721.231 186.777 721.231 186.787 722.351 188.007 C 723.07 188.789 723.109 188.802 724.331 188.677 C 727.181 188.385 732.291 186.817 736.431 184.967 C 737.591 184.45 738.681 184.027 738.841 184.027 C 739.006 184.027 739.47 184.307 739.871 184.649 C 740.573 185.248 740.587 185.294 740.268 185.889 C 739.728 186.888 737.768 188.599 736.328 189.329 C 735.591 189.703 733.038 190.559 730.658 191.239 C 728.278 191.916 726.328 192.549 726.328 192.639 C 726.328 192.734 726.748 193.13 727.261 193.521 C 729.631 195.321 729.961 195.981 728.951 196.881 C 728.301 197.464 727.451 197.474 725.761 196.919 C 724.011 196.345 723.531 196.367 723.211 197.037 C 723.068 197.338 722.95 197.724 722.95 197.896 C 722.95 198.318 722.366 198.288 720.85 197.79 C 716.36 196.31 712.4 193.13 708.85 188.11 C 705.43 183.34 703.29 177.11 703.04 171.31 C 702.914 168.4 703.267 166.71 704.3 165.26 C 705.096 164.15 705.8 164.11 706.52 165.134 C 707.31 166.254 707.68 167.734 707.94 170.824 C 708.746 180.414 712.39 187.624 719.04 192.924 C 720.09 193.751 720.14 193.769 719.728 193.173 C 715.238 186.633 711.958 179.473 710.948 174.073 C 710.647 172.453 710.584 171.253 710.673 168.813 C 710.794 165.463 711.216 163.463 712.283 161.143 C 712.876 159.863 713.183 159.703 714.823 159.793 L 715.775 159.847 L 715.888 142.247 C 715.951 132.557 716.001 122.347 716.001 119.547 C 715.999 113.137 715.568 106.947 714.761 101.647 C 714.379 99.147 714.038 98.707 711.821 97.867 C 710.331 97.303 707.431 97.193 703.261 97.54 C 700.661 97.756 699.131 97.493 698.581 96.734 C 698.378 96.457 698.253 95.771 698.253 94.934 C 698.253 93.324 698.251 93.324 701.303 92.964 C 705.763 92.441 710.623 92.764 713.903 93.801 C 715.213 94.217 715.463 94.395 716.263 95.461 C 717.943 97.701 719.073 101.451 719.633 106.661 C 719.771 107.941 719.87 113.301 719.864 119.161 C 719.858 124.771 719.92 134.861 720 141.461 C 720.094 149.231 720.056 155.761 719.895 159.561 C 719.756 162.861 719.686 165.601 719.739 165.651 C 719.963 165.865 721.229 163.351 721.649 161.851 C 722.484 158.891 722.573 157.541 722.779 144.551 C 722.893 137.461 723.105 125.951 723.25 118.951 C 723.651 99.651 723.645 97.951 723.171 96.251 C 722.332 93.331 721.051 90.781 719.331 88.621 C 717.591 86.441 714.641 83.921 706.731 77.921 L 698.241 71.461 L 698.241 69.221 C 698.241 67.331 698.293 66.991 698.574 67.101 L 698.78 67.13 Z  M 624.68 202.13 C 627.64 197.93 632.44 195.72 639.48 195.31 C 644.73 195.005 648.69 195.506 658.08 197.66 C 666.44 199.59 668.08 199.84 673.08 199.97 L 677.39 200.077 L 678.54 199.481 C 679.171 199.153 679.68 198.828 679.67 198.758 C 679.645 198.542 676.38 195.918 674.16 194.318 C 669.31 190.838 664.52 188.868 660.06 188.508 L 658.34 188.369 L 658.096 187.249 C 657.605 184.989 657.621 184.929 658.884 184.609 C 660.574 184.183 664.784 184.384 666.644 184.979 C 669.154 185.786 672.684 187.599 676.744 190.189 C 681.284 193.069 684.864 194.939 687.144 195.629 C 689.014 196.194 689.054 196.262 689.254 198.939 L 689.392 200.799 L 687.622 201.464 C 683.402 203.044 680.432 203.634 675.622 203.824 C 670.122 204.041 665.222 203.487 653.222 201.294 C 642.822 199.394 643.122 199.424 639.822 199.984 C 634.252 200.958 631.022 202.294 628.222 204.804 C 627.54 205.409 627.455 205.428 626.082 205.277 C 625.298 205.191 624.432 205.037 624.152 204.937 C 623.356 204.649 623.523 203.757 624.681 202.117 L 624.68 202.13 Z  M 646.98 182.83 L 647.067 181.891 L 647.968 182.007 C 649.348 182.184 650.498 183.037 651.198 184.387 C 651.737 185.437 651.823 185.927 651.999 188.967 C 652.107 190.837 652.2 192.727 652.205 193.167 L 652.213 193.973 L 650.083 193.973 C 647.563 193.973 647.913 194.589 647.273 189.023 C 646.825 185.103 646.807 184.723 646.983 182.833 L 646.98 182.83 Z  M 649.86 202.23 C 650.601 202.052 652.07 202.28 652.94 202.706 C 653.97 203.215 655.51 204.656 656.94 206.436 C 658.41 208.276 660.13 209.876 661.21 210.406 C 663.53 211.556 671.21 212.336 675.21 211.826 C 680.65 211.133 686.71 208.446 690.71 204.936 C 691.386 204.346 692.04 203.866 692.16 203.866 C 692.282 203.866 693.38 204.896 694.6 206.156 C 696.17 207.776 696.72 208.476 696.48 208.546 C 695.544 208.83 688.54 212.416 687.35 213.216 C 684.77 214.956 682.93 217.266 682.32 219.546 C 682.177 220.076 681.914 220.876 681.735 221.316 C 681.263 222.486 681.333 224.096 681.971 226.806 C 682.927 230.846 682.655 232.136 680.651 233.066 C 678.991 233.835 678.691 233.68 677.991 231.666 C 676.751 228.136 676.701 223.486 677.843 218.866 C 678.196 217.426 678.247 216.906 678.05 216.716 C 677.755 216.434 675.82 216.419 672.64 216.674 C 670.86 216.817 670.08 216.767 667.96 216.378 C 661.5 215.198 656.76 212.878 653.06 209.088 C 651.59 207.588 651.21 207.048 650.91 206.068 C 650.711 205.409 650.257 204.318 649.9 203.638 L 649.254 202.408 L 649.86 202.23 Z  M 689.56 190.03 C 689.662 189.707 689.965 189.103 690.234 188.69 C 690.635 188.071 690.857 187.935 691.474 187.935 L 692.225 187.935 L 692.373 189.385 C 692.744 193.005 693.993 195.935 696.413 198.815 C 698.983 201.885 702.693 204.555 710.413 208.915 C 712.903 210.305 714.253 211.185 714.263 211.425 C 714.272 211.859 713.093 212.845 712.343 213.025 C 711.143 213.313 705.373 211.665 702.043 210.085 C 695.653 207.045 691.343 201.935 689.743 195.585 C 689.3 193.825 689.197 191.115 689.532 190.055 L 689.56 190.03 Z  M 696.4 180.95 C 696.762 179.55 697.237 178.71 698.24 177.7 L 699.054 176.875 L 699.48 177.378 C 700.14 178.156 700.58 179.838 700.93 182.888 C 701.104 184.428 701.395 186.118 701.576 186.648 C 703.566 192.488 706.006 196.138 711.106 200.848 C 713.606 203.158 719.776 207.918 720.736 208.268 C 720.931 208.34 721.043 208.726 721.043 209.328 C 721.043 210.438 721.177 210.438 717.793 209.373 C 710.143 206.973 703.793 202.033 699.393 194.973 C 698.393 193.383 698.293 193.083 697.233 188.233 C 696.043 182.773 696.023 182.583 696.44 180.963 L 696.4 180.95 Z " fill="rgb(0,0,0)" vector-effect="non-scaling-stroke" stroke-width="9" stroke="rgb(255,255,255)" stroke-linejoin="round" stroke-linecap="round" stroke-miterlimit="4"/><path d=" M 698.78 67.13 C 699.345 67.337 710.78 75.22 713.08 76.97 C 717.78 80.58 723.58 85.85 724.98 87.87 C 726.06 89.35 726.95 91.98 727.24 94.54 C 727.585 97.59 727.572 122.74 727.216 142.14 C 726.914 158.64 726.954 158.14 725.396 162.94 C 724.913 164.4 724.56 165.63 724.612 165.68 C 724.664 165.73 725.069 165.507 725.511 165.185 C 726.551 164.427 727.711 162.745 728.401 160.985 C 729.551 158.045 729.621 157.045 729.881 140.285 C 730.115 125.185 730.284 118.285 730.87 100.185 L 731.145 91.695 L 731.803 90.435 C 732.963 88.215 735.003 86.445 746.503 77.735 C 752.593 73.085 757.603 69.285 757.703 69.285 C 757.929 69.285 757.517 74.115 757.264 74.425 C 757.125 74.593 754.044 76.855 750.414 79.445 C 742.604 85.025 740.484 86.695 737.914 89.255 C 735.414 91.795 734.794 92.685 734.444 94.275 C 733.77 97.335 733.613 105.675 733.876 124.275 C 734.182 145.875 734.019 153.075 733.152 156.475 C 732.46 159.165 731.262 162.465 730.222 164.525 C 729.785 165.396 729.467 166.145 729.515 166.195 C 729.725 166.395 730.975 165.554 731.955 164.565 C 735.005 161.445 736.905 156.805 737.515 150.965 C 737.757 148.635 737.868 135.265 737.719 126.565 C 737.673 123.845 737.637 118.435 737.64 114.565 C 737.645 108.195 737.695 107.205 738.144 104.825 C 738.737 101.675 739.924 98.155 741.084 96.085 C 741.78 94.845 742.094 94.505 742.934 94.105 C 745.324 92.975 751.844 92.855 757.034 93.848 L 758.214 94.073 L 758.214 95.773 C 758.214 96.71 758.188 97.493 758.157 97.513 C 758.127 97.532 755.617 97.608 752.587 97.683 C 746.557 97.832 746.177 97.903 744.637 99.203 C 743.507 100.15 743.227 100.743 742.937 102.753 C 742.339 107.003 742.241 110.263 742.244 125.753 C 742.246 135.313 742.151 143.253 742.013 144.753 C 741.37 152.023 739.853 157.853 737.273 162.953 C 736.023 165.413 735.813 165.683 733.863 167.433 C 730.203 170.733 725.303 173.923 721.063 175.743 L 719.153 176.575 L 720.523 176.497 C 723.583 176.324 731.023 172.027 739.923 165.297 C 741.583 164.047 743.023 163.017 743.113 163.017 C 743.436 163.017 743.988 163.967 743.988 164.527 C 743.988 165.508 742.198 168.037 740.698 169.187 C 733.018 175.057 726.798 178.717 721.498 180.387 C 720.328 180.769 719.108 181.31 718.808 181.587 L 718.251 182.093 L 719.611 183.393 L 721.621 182.837 C 726.121 181.597 728.901 180.247 737.621 175.027 C 744.311 171.047 744.391 171.017 744.391 172.757 C 744.391 173.51 744.185 173.967 743.271 175.257 C 742.654 176.123 742.021 176.987 741.861 177.177 C 741.404 177.726 733.771 182.027 730.561 183.517 C 728.961 184.271 726.471 185.237 725.041 185.657 C 721.231 186.777 721.231 186.787 722.351 188.007 C 723.07 188.789 723.109 188.802 724.331 188.677 C 727.181 188.385 732.291 186.817 736.431 184.967 C 737.591 184.45 738.681 184.027 738.841 184.027 C 739.006 184.027 739.47 184.307 739.871 184.649 C 740.573 185.248 740.587 185.294 740.268 185.889 C 739.728 186.888 737.768 188.599 736.328 189.329 C 735.591 189.703 733.038 190.559 730.658 191.239 C 728.278 191.916 726.328 192.549 726.328 192.639 C 726.328 192.734 726.748 193.13 727.261 193.521 C 729.631 195.321 729.961 195.981 728.951 196.881 C 728.301 197.464 727.451 197.474 725.761 196.919 C 724.011 196.345 723.531 196.367 723.211 197.037 C 723.068 197.338 722.95 197.724 722.95 197.896 C 722.95 198.318 722.366 198.288 720.85 197.79 C 716.36 196.31 712.4 193.13 708.85 188.11 C 705.43 183.34 703.29 177.11 703.04 171.31 C 702.914 168.4 703.267 166.71 704.3 165.26 C 705.096 164.15 705.8 164.11 706.52 165.134 C 707.31 166.254 707.68 167.734 707.94 170.824 C 708.746 180.414 712.39 187.624 719.04 192.924 C 720.09 193.751 720.14 193.769 719.728 193.173 C 715.238 186.633 711.958 179.473 710.948 174.073 C 710.647 172.453 710.584 171.253 710.673 168.813 C 710.794 165.463 711.216 163.463 712.283 161.143 C 712.876 159.863 713.183 159.703 714.823 159.793 L 715.775 159.847 L 715.888 142.247 C 715.951 132.557 716.001 122.347 716.001 119.547 C 715.999 113.137 715.568 106.947 714.761 101.647 C 714.379 99.147 714.038 98.707 711.821 97.867 C 710.331 97.303 707.431 97.193 703.261 97.54 C 700.661 97.756 699.131 97.493 698.581 96.734 C 698.378 96.457 698.253 95.771 698.253 94.934 C 698.253 93.324 698.251 93.324 701.303 92.964 C 705.763 92.441 710.623 92.764 713.903 93.801 C 715.213 94.217 715.463 94.395 716.263 95.461 C 717.943 97.701 719.073 101.451 719.633 106.661 C 719.771 107.941 719.87 113.301 719.864 119.161 C 719.858 124.771 719.92 134.861 720 141.461 C 720.094 149.231 720.056 155.761 719.895 159.561 C 719.756 162.861 719.686 165.601 719.739 165.651 C 719.963 165.865 721.229 163.351 721.649 161.851 C 722.484 158.891 722.573 157.541 722.779 144.551 C 722.893 137.461 723.105 125.951 723.25 118.951 C 723.651 99.651 723.645 97.951 723.171 96.251 C 722.332 93.331 721.051 90.781 719.331 88.621 C 717.591 86.441 714.641 83.921 706.731 77.921 L 698.241 71.461 L 698.241 69.221 C 698.241 67.331 698.293 66.991 698.574 67.101 L 698.78 67.13 Z  M 624.68 202.13 C 627.64 197.93 632.44 195.72 639.48 195.31 C 644.73 195.005 648.69 195.506 658.08 197.66 C 666.44 199.59 668.08 199.84 673.08 199.97 L 677.39 200.077 L 678.54 199.481 C 679.171 199.153 679.68 198.828 679.67 198.758 C 679.645 198.542 676.38 195.918 674.16 194.318 C 669.31 190.838 664.52 188.868 660.06 188.508 L 658.34 188.369 L 658.096 187.249 C 657.605 184.989 657.621 184.929 658.884 184.609 C 660.574 184.183 664.784 184.384 666.644 184.979 C 669.154 185.786 672.684 187.599 676.744 190.189 C 681.284 193.069 684.864 194.939 687.144 195.629 C 689.014 196.194 689.054 196.262 689.254 198.939 L 689.392 200.799 L 687.622 201.464 C 683.402 203.044 680.432 203.634 675.622 203.824 C 670.122 204.041 665.222 203.487 653.222 201.294 C 642.822 199.394 643.122 199.424 639.822 199.984 C 634.252 200.958 631.022 202.294 628.222 204.804 C 627.54 205.409 627.455 205.428 626.082 205.277 C 625.298 205.191 624.432 205.037 624.152 204.937 C 623.356 204.649 623.523 203.757 624.681 202.117 L 624.68 202.13 Z  M 646.98 182.83 L 647.067 181.891 L 647.968 182.007 C 649.348 182.184 650.498 183.037 651.198 184.387 C 651.737 185.437 651.823 185.927 651.999 188.967 C 652.107 190.837 652.2 192.727 652.205 193.167 L 652.213 193.973 L 650.083 193.973 C 647.563 193.973 647.913 194.589 647.273 189.023 C 646.825 185.103 646.807 184.723 646.983 182.833 L 646.98 182.83 Z  M 649.86 202.23 C 650.601 202.052 652.07 202.28 652.94 202.706 C 653.97 203.215 655.51 204.656 656.94 206.436 C 658.41 208.276 660.13 209.876 661.21 210.406 C 663.53 211.556 671.21 212.336 675.21 211.826 C 680.65 211.133 686.71 208.446 690.71 204.936 C 691.386 204.346 692.04 203.866 692.16 203.866 C 692.282 203.866 693.38 204.896 694.6 206.156 C 696.17 207.776 696.72 208.476 696.48 208.546 C 695.544 208.83 688.54 212.416 687.35 213.216 C 684.77 214.956 682.93 217.266 682.32 219.546 C 682.177 220.076 681.914 220.876 681.735 221.316 C 681.263 222.486 681.333 224.096 681.971 226.806 C 682.927 230.846 682.655 232.136 680.651 233.066 C 678.991 233.835 678.691 233.68 677.991 231.666 C 676.751 228.136 676.701 223.486 677.843 218.866 C 678.196 217.426 678.247 216.906 678.05 216.716 C 677.755 216.434 675.82 216.419 672.64 216.674 C 670.86 216.817 670.08 216.767 667.96 216.378 C 661.5 215.198 656.76 212.878 653.06 209.088 C 651.59 207.588 651.21 207.048 650.91 206.068 C 650.711 205.409 650.257 204.318 649.9 203.638 L 649.254 202.408 L 649.86 202.23 Z  M 689.56 190.03 C 689.662 189.707 689.965 189.103 690.234 188.69 C 690.635 188.071 690.857 187.935 691.474 187.935 L 692.225 187.935 L 692.373 189.385 C 692.744 193.005 693.993 195.935 696.413 198.815 C 698.983 201.885 702.693 204.555 710.413 208.915 C 712.903 210.305 714.253 211.185 714.263 211.425 C 714.272 211.859 713.093 212.845 712.343 213.025 C 711.143 213.313 705.373 211.665 702.043 210.085 C 695.653 207.045 691.343 201.935 689.743 195.585 C 689.3 193.825 689.197 191.115 689.532 190.055 L 689.56 190.03 Z  M 696.4 180.95 C 696.762 179.55 697.237 178.71 698.24 177.7 L 699.054 176.875 L 699.48 177.378 C 700.14 178.156 700.58 179.838 700.93 182.888 C 701.104 184.428 701.395 186.118 701.576 186.648 C 703.566 192.488 706.006 196.138 711.106 200.848 C 713.606 203.158 719.776 207.918 720.736 208.268 C 720.931 208.34 721.043 208.726 721.043 209.328 C 721.043 210.438 721.177 210.438 717.793 209.373 C 710.143 206.973 703.793 202.033 699.393 194.973 C 698.393 193.383 698.293 193.083 697.233 188.233 C 696.043 182.773 696.023 182.583 696.44 180.963 L 696.4 180.95 Z " fill="rgb(0,0,0)"/></svg>